<svg width="122" height="122" viewBox="0 0 122 122" fill="none" xmlns="http://www.w3.org/2000/svg">
<path d="M79.8917 17.4379C85.7502 11.5764 95.2519 11.5764 101.11 17.4379L104.585 20.9145C110.439 26.7718 110.439 36.265 104.585 42.1222L101.11 45.5989C95.2519 51.4604 85.7502 51.4604 79.8917 45.5989L76.4169 42.1222C70.5627 36.265 70.5626 26.7718 76.4168 20.9145L79.8917 17.4379ZM30.6846 10.0048C38.9689 10.0048 45.6846 16.7206 45.6846 25.0048V33.3919C45.6846 41.6761 38.9689 48.3919 30.6846 48.3919H22.3174C14.0332 48.3919 7.31745 41.6761 7.31745 33.3919V25.0048C7.31745 16.7206 14.0332 10.0048 22.3175 10.0048H30.6846ZM96.9372 76.2917C105.221 76.2917 111.937 83.0074 111.937 91.2917V99.6788C111.937 107.963 105.221 114.679 96.9372 114.679H88.57C80.2858 114.679 73.57 107.963 73.57 99.6788V91.2917C73.57 83.0074 80.2858 76.2917 88.57 76.2917H96.9372ZM30.6846 76.2917C38.9689 76.2917 45.6846 83.0074 45.6846 91.2917V99.6788C45.6846 107.963 38.9689 114.679 30.6846 114.679H22.3174C14.0332 114.679 7.31745 107.963 7.31745 99.6788V91.2917C7.31745 83.0074 14.0332 76.2917 22.3175 76.2917H30.6846ZM101.101 4.58672C95.2447 -1.2623 85.7574 -1.2623 79.9011 4.58672L63.6192 20.8482C57.7561 26.704 57.7519 36.2044 63.6098 42.0653L79.8917 58.3556C85.7502 64.2172 95.2519 64.2172 101.11 58.3556L117.392 42.0653C123.25 36.2044 123.246 26.704 117.383 20.8483L101.101 4.58672ZM53.0021 17.6836C53.0021 9.39931 46.2863 2.68358 38.0021 2.68358H15C6.71573 2.68358 0 9.39931 0 17.6836V40.7131C0 48.9974 6.71573 55.7131 15 55.7131H38.0021C46.2863 55.7131 53.0021 48.9974 53.0021 40.7131V17.6836ZM119.255 83.9705C119.255 75.6862 112.539 68.9705 104.255 68.9705H81.2526C72.9683 68.9705 66.2526 75.6862 66.2526 83.9705V107C66.2526 115.284 72.9683 122 81.2526 122H104.255C112.539 122 119.255 115.284 119.255 107V83.9705ZM53.0021 83.9705C53.0021 75.6862 46.2863 68.9705 38.0021 68.9705H15C6.71573 68.9705 0 75.6862 0 83.9705V107C0 115.284 6.71573 122 15 122H38.0021C46.2863 122 53.0021 115.284 53.0021 107V83.9705Z" fill="black"/>
</svg>
